<svg viewBox="0 0 185 48" fill="#ffffff" xmlns="http://www.w3.org/2000/svg">
  <path d="M184.251 19.3462L154.904 20.3518C154.6 21.5433 154.447 22.768 154.447 24C154.447 24.4438 154.466 24.8969 154.503 25.3481L184.607 27.4144C184.868 26.302 185 25.1547 185 24C185 22.4144 184.751 20.8471 184.251 19.3462Z" />
  <path d="M183.75 18.0497C182.891 16.0994 181.598 14.326 179.986 12.8895L156.597 16.3223C156.074 17.1823 155.642 18.0902 155.306 19.0258L183.75 18.0497Z" />
  <path d="M182.106 32.7845L160.495 35.9576C163.138 37.9263 166.389 39 169.722 39C174.649 39 179.235 36.6869 182.106 32.7845Z" />
  <path d="M178.572 11.7735C175.978 9.9558 172.932 9 169.721 9C164.98 9 160.504 11.175 157.618 14.849L178.572 11.7735Z" />
  <path d="M154.688 26.674C155.253 29.7643 156.825 32.6427 159.149 34.8306L183.061 31.3204C183.533 30.4862 183.93 29.6077 184.234 28.7035L154.688 26.674Z" />
  <path d="M13.2181 14.0645C13.9486 14.0645 14.4659 14.2873 14.4659 15.1768V36.3296H19.5628V17.2376C19.5628 14.8435 19.223 12.2855 15.1417 12.2855H4.43056C0.351122 12.2836 0 14.8435 0 17.2376V36.3296H5.10071V15.1768C5.10071 14.2873 5.62173 14.0645 6.35418 14.0645H13.2181Z" />
  <path d="M44.4831 36.3333L50.2105 15.8471C50.943 13.3941 52.0265 11.6685 54.911 11.6685C58.3146 11.6685 58.8829 14.0663 59.7852 16.9595L65.6297 36.3352H60.242L58.0881 29.0405H48.9042L46.8635 36.3352H44.4831V36.3333ZM57.4123 26.7017L54.626 17.3481C54.2295 15.9595 54.2862 15.0663 53.499 15.0663C52.6986 15.0663 52.5891 16.0147 52.2493 17.4033L49.5819 26.7017H57.4123Z" />
  <path d="M37.387 36.3315L31.7634 17.3499C31.3707 15.9613 31.4236 15.0645 30.6402 15.0645C29.8397 15.0645 29.7265 16.0166 29.3867 17.4015L24.0028 36.3315H21.6261L27.3498 15.8453C28.0766 13.3959 29.1602 11.6704 32.0503 11.6704C35.4539 11.6704 36.0278 14.0681 36.9245 16.9576L42.7728 36.3333H37.387V36.3315Z" />
  <path d="M67.6873 36.3315V12.2818H72.7446V22.7514H82.0683V12.2818H87.2502V36.3315H82.0683V25.0884H72.7446V36.3315H67.6873Z" />
  <path d="M96.4114 14.0645C95.6676 14.0645 95.1542 14.2873 95.1542 15.1768V22.7495H104.172V25.0866H95.1542V32.8821C95.1542 33.9926 95.8375 34.5488 97.0854 34.5488H106.783V36.3315H93.9706C91.5335 36.3315 90.0535 35.221 90.0535 32.1013V17.2394C90.0535 14.8453 90.3933 12.2873 94.4802 12.2873H106.101V14.0645H96.4114Z" />
  <path d="M115.835 36.3315V14.0681H108.652V12.2818H128.211V14.0681H121.024V36.3315H115.835Z" />
  <path d="M125.802 36.3333L131.529 15.8471C132.266 13.3941 133.345 11.6685 136.234 11.6685C139.637 11.6685 140.204 14.0663 141.108 16.9595L146.952 36.3352H141.565L139.411 29.0405H130.223L128.186 36.3352H125.802V36.3333ZM138.729 26.7017L135.952 17.3481C135.556 15.9595 135.613 15.0663 134.822 15.0663C134.025 15.0663 133.915 16.0147 133.574 17.4033L130.91 26.7017H138.729Z" />
</svg>
