<svg width="32" height="32" viewBox="0 0 32 32" fill="none" xmlns="http://www.w3.org/2000/svg">
<rect y="-0.000244141" width="32" height="32" rx="16" fill="white"/>
<path fill-rule="evenodd" clip-rule="evenodd" d="M7.45706 15.9038C11.6446 14.0692 14.437 12.8597 15.8342 12.2753C19.8234 10.6069 20.6523 10.317 21.1926 10.3075C21.3114 10.3054 21.5771 10.335 21.7492 10.4754C21.8946 10.594 21.9346 10.7542 21.9537 10.8666C21.9728 10.979 21.9966 11.2351 21.9777 11.4352C21.7615 13.7192 20.8261 19.2619 20.3503 21.82C20.1489 22.9025 19.7524 23.2654 19.3686 23.3009C18.5344 23.3781 17.901 22.7466 17.093 22.214C15.8287 21.3807 15.1145 20.8619 13.8873 20.0487C12.4691 19.1089 13.3884 18.5924 14.1967 17.7482C14.4082 17.5273 18.0836 14.1657 18.1548 13.8607C18.1637 13.8226 18.1719 13.6804 18.0879 13.6053C18.0039 13.5303 17.88 13.5559 17.7905 13.5764C17.6637 13.6053 15.644 14.9477 11.7314 17.6034C11.1582 17.9993 10.6389 18.1922 10.1736 18.1821C9.66076 18.1709 8.67416 17.8904 7.94072 17.6507C7.04114 17.3567 6.32616 17.2012 6.38842 16.7018C6.42085 16.4417 6.77706 16.1757 7.45706 15.9038Z" fill="#79AE69"/>
</svg>
