<svg width="32" height="32" viewBox="0 0 32 32" fill="none" xmlns="http://www.w3.org/2000/svg">
<rect y="-0.000244141" width="32" height="32" rx="16" fill="white"/>
<path fill-rule="evenodd" clip-rule="evenodd" d="M22.2602 10.3668C22.9455 10.5645 23.4859 11.1432 23.6703 11.8775C24.0131 13.2185 23.9999 16.0139 23.9999 16.0139C23.9999 16.0139 23.9999 18.795 23.6705 20.1362C23.4859 20.8703 22.9456 21.4491 22.2602 21.6467C21.0081 21.9998 16 21.9998 16 21.9998C16 21.9998 11.0049 21.9998 9.73974 21.6327C9.05432 21.435 8.51404 20.8561 8.32947 20.1221C8 18.795 8 15.9998 8 15.9998C8 15.9998 8 13.2185 8.32947 11.8775C8.51391 11.1434 9.0675 10.5504 9.73962 10.3528C10.9917 9.99976 15.9998 9.99976 15.9998 9.99976C15.9998 9.99976 21.0081 9.99976 22.2602 10.3668ZM18.5699 15.9998L14.4053 18.5693V13.4304L18.5699 15.9998Z" fill="#79AE69"/>
</svg>
